<svg version="1.1" id="Layer_1" xmlns="http://www.w3.org/2000/svg" xmlns:xlink="http://www.w3.org/1999/xlink" x="0px" y="0px"
	 width="100%" viewBox="0 0 496 496" enable-background="new 0 0 496 496" xml:space="preserve">
<path fill="#ffffff" opacity="1.000000" stroke="none" 
	d="
M314.218597,301.826477 
	C320.526611,301.884949 320.969879,302.486389 319.069305,308.346741 
	C315.477081,319.423096 311.715363,330.449188 308.394409,341.606415 
	C307.145752,345.801453 305.172394,347.348480 300.693420,347.477753 
	C275.872833,348.194214 251.062363,347.665588 226.246368,347.463440 
	C213.758621,347.361694 201.267044,347.739594 188.777084,347.891327 
	C187.444977,347.907532 186.109711,347.906036 184.780197,347.833740 
	C183.015198,347.737732 181.365311,347.377533 181.392700,345.091766 
	C181.418121,342.970825 182.271820,341.738403 184.675171,341.653656 
	C187.322067,341.560333 189.990295,341.260345 192.587982,340.742859 
	C199.058441,339.453918 202.554810,335.916840 203.475662,329.377686 
	C204.123856,324.774597 204.563156,320.100586 204.578079,315.456573 
	C204.677612,284.465607 204.714035,253.473831 204.581345,222.483124 
	C204.553619,216.006714 203.861237,209.521149 203.221283,203.064957 
	C202.947281,200.300629 202.395126,197.404892 199.295181,195.685730 
	C194.606750,199.133148 192.289642,204.239319 189.589981,209.463043 
	C192.563721,208.935043 194.229065,205.740067 197.810989,206.610870 
	C197.133194,212.728409 193.451263,216.420090 188.255112,218.675247 
	C182.762161,221.059189 180.924957,225.542755 180.319046,230.922943 
	C179.728760,236.164520 181.380371,239.785019 186.859970,241.687286 
	C192.591507,243.676987 195.385056,248.632767 195.953094,254.368683 
	C196.509109,259.983124 196.170792,265.686737 196.211777,271.351288 
	C196.224533,273.115082 196.021362,274.934082 193.728470,274.912964 
	C183.762024,274.821320 170.961716,269.959595 168.826752,256.360077 
	C167.844528,250.103409 170.346359,244.790131 176.111298,241.930878 
	C178.690689,240.651566 179.120148,239.215393 178.159653,236.796341 
	C173.422546,224.865967 172.625885,212.606766 175.522659,200.157242 
	C177.550385,191.442673 167.014328,178.041275 160.877457,175.215591 
	C158.854019,174.283936 157.852356,175.364197 156.506424,176.371674 
	C151.971741,179.766159 147.639069,179.940063 142.550964,176.901428 
	C144.035950,173.489365 147.609039,172.961868 150.875473,170.909882 
	C145.193710,168.656433 137.615036,169.154373 136.880402,160.233795 
	C141.916595,159.169708 147.491348,159.187531 150.074615,163.232147 
	C154.111435,169.552582 160.833878,171.276657 166.419220,175.155518 
	C160.800262,170.464417 154.761780,166.107346 154.011642,158.023499 
	C155.161285,156.179230 156.758881,158.451477 158.129120,157.546616 
	C157.871155,151.179489 152.766693,146.300766 152.211685,139.737381 
	C154.782944,139.203094 156.198761,140.736267 157.536514,142.061462 
	C164.198029,148.660492 167.186554,156.614410 167.562851,166.070648 
	C167.902618,174.608871 171.282410,182.346527 177.576233,189.421875 
	C182.816116,175.170593 190.361832,161.966873 184.114853,146.494888 
	C183.100189,143.981888 181.784042,142.061172 179.496338,140.308029 
	C175.521301,137.261810 172.363556,133.284637 170.648407,127.944038 
	C175.139343,127.142555 176.717072,130.867432 180.302094,131.981827 
	C181.258240,125.601913 179.525208,118.710609 183.528015,112.853493 
	C187.393997,113.879662 187.815689,117.348145 188.151825,119.961861 
	C188.648834,123.826408 189.095871,127.899628 187.479584,131.774536 
	C185.222076,137.186722 184.702667,142.622955 187.204376,148.188751 
	C188.354935,150.748474 188.486282,153.621002 188.525726,157.202316 
	C193.090744,154.223984 193.449692,150.534409 192.381424,146.489944 
	C190.367828,138.866531 193.083389,131.590622 193.067093,122.902672 
	C197.214096,127.163055 197.030457,131.364914 197.589066,136.003998 
	C202.056320,131.184967 206.505859,126.991402 212.764252,125.163277 
	C213.518005,132.470734 208.713791,138.185135 200.868362,139.672546 
	C201.885574,137.303314 204.348770,137.019257 205.758163,135.553864 
	C207.073425,134.186325 209.303680,133.481247 209.046341,130.617584 
	C203.929092,130.702728 201.497833,134.872635 200.277313,138.187302 
	C194.622269,153.545059 186.378021,167.900436 182.533768,183.941513 
	C182.468048,184.215729 182.702118,184.561768 182.801895,184.872620 
	C190.248383,187.316650 191.709061,186.520432 193.824249,179.448715 
	C194.448090,177.362961 194.470810,174.754669 197.273209,173.454285 
	C200.701874,176.970840 199.064499,181.178574 198.846390,185.093994 
	C204.145309,187.889359 206.830933,181.623337 211.616898,181.641235 
	C211.941788,186.105911 215.011322,186.020569 218.369751,185.988205 
	C229.031799,185.885483 239.695801,185.975372 250.358978,186.015244 
	C252.489670,186.023224 255.036133,185.601379 255.100174,188.890533 
	C255.159866,191.957031 252.678970,191.477402 250.783203,191.700592 
	C249.129700,191.895248 247.472076,192.080750 245.810867,192.179688 
	C234.157593,192.873611 228.515137,198.005997 228.442688,209.573532 
	C228.206863,247.227997 228.237350,284.885437 228.430954,322.540375 
	C228.480392,332.153015 232.554153,335.778046 242.205338,335.593079 
	C254.848022,335.350739 267.495667,336.264771 280.143524,334.828491 
	C289.028473,333.819550 296.576172,330.503845 302.358002,323.809204 
	C307.602051,317.737244 311.834045,310.958130 313.865356,302.509827 
	C314.002563,302.037292 314.218597,301.826477 314.218597,301.826477 
M176.864716,205.241547 
	C176.174240,212.287811 175.446243,219.336853 178.436096,226.449387 
	C180.716965,219.894028 183.902771,214.116318 187.133728,208.354004 
	C188.256836,206.350967 189.551849,204.249176 188.019913,201.853455 
	C185.420349,197.788147 185.287415,192.235062 180.469772,189.408585 
	C179.179703,194.385925 177.355347,199.204071 176.864716,205.241547 
z"/>
<path fill="#ffffff" opacity="1.000000" stroke="none" 
	d="
M231.935333,177.380035 
	C227.451248,177.376877 223.446915,177.199295 219.464600,177.419632 
	C215.762207,177.624466 214.547668,176.176239 214.592316,172.505859 
	C214.756241,159.025589 214.663803,145.542145 214.661896,132.059906 
	C214.661224,127.238297 214.553726,122.446541 213.891479,117.632950 
	C212.658142,108.668083 208.058609,104.026901 199.024017,103.343613 
	C196.867554,103.180511 194.703247,103.123543 192.543671,102.998314 
	C190.441452,102.876411 189.707748,101.634941 189.754883,99.661163 
	C189.798904,97.817818 190.722733,96.921272 192.503372,96.817238 
	C193.333496,96.768730 194.165756,96.732574 194.997055,96.732323 
	C216.468674,96.725693 237.940369,96.700989 259.411835,96.759514 
	C261.519806,96.765259 264.427094,95.828613 264.567200,99.640892 
	C264.712769,103.602791 261.879852,103.074196 259.410248,103.133499 
	C258.412384,103.157455 257.413544,103.184799 256.417908,103.251541 
	C245.147003,104.006996 240.488464,108.666168 240.358307,119.910301 
	C240.167603,136.386627 240.218994,152.865875 240.188751,169.343918 
	C240.174057,177.344147 240.196182,177.344193 231.935333,177.380035 
z"/>
<path fill="#ffffff" opacity="1.000000" stroke="none" 
	d="
M313.900269,302.148254 
	C309.133484,304.048706 304.447021,305.375061 299.325958,305.533203 
	C293.896790,305.700867 287.455139,317.000793 288.475769,323.746277 
	C288.714722,325.325531 289.875641,326.855194 288.711334,328.580933 
	C286.801605,328.211304 286.569641,326.657318 286.510925,325.220642 
	C285.942963,311.321259 287.450958,297.759705 296.020172,286.251129 
	C303.116119,276.721130 300.572083,263.358032 292.499786,254.015884 
	C286.751648,254.463943 280.453308,256.141052 276.122131,250.143295 
	C277.709930,246.413605 281.566101,248.382233 283.889557,246.191544 
	C282.444641,243.550308 279.350403,242.437469 277.877625,239.812027 
	C276.379517,237.141388 275.946320,234.621933 277.485565,231.531952 
	C282.624786,232.954712 287.975861,234.652008 288.644714,240.564529 
	C289.425110,247.463516 295.281464,250.470627 298.339081,255.702530 
	C294.097351,249.693527 292.692413,243.225037 294.016968,236.259293 
	C296.097778,235.276428 296.491302,237.908371 298.408630,237.697189 
	C299.078064,231.470764 297.776581,225.047028 298.932587,218.811859 
	C301.941040,218.766220 302.423462,220.707001 303.100281,222.345459 
	C306.880127,231.495773 306.699402,240.466553 303.219055,249.858688 
	C301.445496,254.644897 300.445740,260.247650 301.677094,265.433533 
	C302.354614,268.286896 301.693817,271.339722 303.256378,274.850739 
	C314.094391,263.326843 325.457458,252.960861 326.605927,236.246490 
	C326.764435,233.939316 325.640900,232.178116 324.671478,230.210922 
	C322.323944,225.447128 320.059235,220.552399 321.347382,214.623276 
	C325.700867,215.585144 325.177856,219.966034 327.943756,221.791687 
	C331.172882,216.205490 333.291870,209.993027 338.059509,205.425858 
	C341.060852,208.678223 341.107300,215.307098 338.219513,220.366623 
	C336.823090,222.813141 335.173706,225.158859 333.357117,227.312561 
	C329.994293,231.299393 327.840302,235.667801 328.533356,240.983704 
	C328.840149,243.337006 326.671783,245.339584 327.882904,248.001816 
	C331.665314,246.730942 333.286041,244.122467 333.695404,240.310349 
	C334.556366,232.292664 340.099609,226.547195 343.396179,219.625290 
	C346.203766,223.762161 343.612732,227.464081 343.607117,231.638443 
	C349.316620,231.016327 354.614105,226.832825 361.177307,229.546234 
	C357.873383,235.874069 352.500549,238.286850 346.098267,238.270508 
	C342.308075,238.260849 339.824982,239.374603 337.917938,242.592392 
	C336.832214,244.424438 335.438965,246.293839 333.728729,247.501236 
	C320.880524,256.571899 312.146881,269.488525 302.314606,281.303009 
	C295.945282,288.956451 291.565063,297.952240 290.481934,308.309692 
	C295.552826,302.934998 301.301544,298.461578 306.922760,293.843689 
	C309.090973,292.062500 308.494843,289.591431 308.599274,287.335480 
	C308.804016,282.911224 308.875275,278.485352 311.609650,274.606689 
	C314.582611,275.697632 313.750122,278.762421 315.351196,280.720581 
	C319.822296,276.362976 321.536377,269.882935 327.509521,266.451660 
	C331.267456,277.073517 321.037079,279.737488 316.110077,286.769135 
	C324.294708,283.264557 330.898071,278.934662 339.172546,279.728790 
	C336.501648,287.223602 332.199707,290.441437 326.018768,289.113403 
	C318.807373,287.563965 314.668549,291.735870 310.025574,295.942749 
	C312.059143,297.998108 314.983856,295.131683 316.093445,297.933075 
	C316.719177,299.512878 314.725433,300.050781 314.295593,301.562012 
	C314.218597,301.826477 314.002563,302.037292 313.900269,302.148254 
M302.170105,239.081482 
	C302.309479,240.406708 302.448822,241.731918 302.588165,243.057144 
	C304.048248,239.163620 303.395447,235.388199 302.477448,231.574631 
	C302.375519,233.810791 302.273560,236.046936 302.170105,239.081482 
M346.984344,235.662918 
	C349.812744,235.534470 352.660889,235.455292 355.334747,232.145615 
	C351.595703,232.927277 348.746033,233.120773 346.984344,235.662918 
z"/>
<path fill="#ffffff" opacity="1.000000" stroke="none" 
	d="
M282.051697,382.918091 
	C280.462372,377.407532 277.278900,372.758850 277.092957,366.114044 
	C282.598022,368.756531 281.382721,374.579071 284.640961,377.751129 
	C286.709229,375.652496 287.117523,372.781708 288.233551,370.276001 
	C288.878204,368.828644 288.901855,366.655151 291.035248,366.619904 
	C293.512085,366.578979 293.437714,368.996887 294.064941,370.586578 
	C295.085144,373.172424 295.951294,375.819031 297.021912,378.832458 
	C300.770630,375.277893 299.326233,369.071167 304.525482,367.012177 
	C303.800873,373.014984 302.235321,378.697479 299.372559,383.838318 
	C297.931763,386.425598 296.037262,385.220490 295.077362,382.923950 
	C293.870483,380.036591 292.794922,377.094330 291.435699,373.590637 
	C288.679474,376.481934 288.462036,379.900940 287.103088,382.747070 
	C285.772522,385.533722 284.204498,386.459351 282.051697,382.918091 
z"/>
<path fill="#ffffff" opacity="1.000000" stroke="none" 
	d="
M184.739594,383.840332 
	C184.656052,379.129669 184.762283,374.826019 184.675674,370.526245 
	C184.621033,367.812775 185.694534,366.546906 188.457977,366.657806 
	C190.770248,366.750641 193.095718,366.574432 195.402954,366.717377 
	C197.954147,366.875427 201.028442,368.860748 200.198196,370.632263 
	C198.003174,375.315765 205.575012,381.580048 198.215668,384.569458 
	C194.158325,386.217590 189.252960,386.434265 184.739594,383.840332 
M188.520325,381.067902 
	C190.620102,383.683685 193.258087,382.873047 195.734802,382.001587 
	C197.666672,381.321869 198.302765,379.861328 196.643677,378.213837 
	C194.507080,376.092194 189.778885,377.349579 188.520325,381.067902 
M190.730850,374.566223 
	C193.103516,374.138062 196.563599,374.965149 196.158524,370.920929 
	C196.008514,369.423157 193.889786,369.341431 192.394531,369.369476 
	C190.951111,369.396515 189.271362,369.138580 188.572281,370.834869 
	C187.942810,372.362152 188.308426,373.726440 190.730850,374.566223 
z"/>
<path fill="#ffffff" opacity="1.000000" stroke="none" 
	d="
M170.594025,369.343262 
	C174.656418,373.504364 174.117523,377.739807 171.485168,381.878662 
	C169.505432,384.991425 163.387741,386.423340 159.140442,384.973022 
	C154.678543,383.449463 152.451660,380.208099 152.496323,375.509796 
	C152.531464,371.815216 154.424973,369.092194 157.697571,367.656494 
	C162.080597,365.733673 166.424835,365.862823 170.594025,369.343262 
M160.522949,381.995728 
	C164.502975,383.405060 167.391754,381.895996 169.099319,378.336334 
	C170.352295,375.724365 169.862701,373.186432 167.409546,371.247070 
	C164.109360,368.638153 160.294235,368.938416 157.735855,372.068756 
	C155.143967,375.240112 155.826508,378.323029 160.522949,381.995728 
z"/>
<path fill="#ffffff" opacity="1.000000" stroke="none" 
	d="
M329.717896,376.380554 
	C330.485321,372.985260 328.324188,369.249695 332.322083,366.725891 
	C333.527344,372.466919 333.997620,378.328796 332.719910,383.951385 
	C332.142822,386.490723 329.771912,384.607422 328.588959,383.236969 
	C325.910156,380.133514 323.316895,376.956238 320.359467,373.414520 
	C318.322388,377.423187 320.469116,381.521301 318.509583,384.991028 
	C316.155487,382.912964 315.720917,372.813416 317.638275,366.544434 
	C321.867157,367.789154 323.186371,371.981049 325.893677,374.610779 
	C327.699951,376.365234 327.548157,376.521515 329.717896,376.380554 
z"/>
<path fill="#ffffff" opacity="1.000000" stroke="none" 
	d="
M257.040527,367.225159 
	C258.642853,366.344360 260.093750,366.262299 260.778961,367.699799 
	C263.271088,372.928253 265.607544,378.231476 267.936646,383.535522 
	C268.071472,383.842590 267.621399,384.406525 267.447510,384.840973 
	C265.049988,384.200745 251.462860,384.256439 248.601562,385.297546 
	C250.564011,378.469940 253.858368,373.044861 257.040527,367.225159 
M257.706268,372.965973 
	C257.109772,374.349854 255.400055,375.784607 257.581482,377.133942 
	C258.492493,377.697449 259.804474,377.185364 260.098083,376.289154 
	C260.662323,374.566925 260.645203,372.781036 257.706268,372.965973 
z"/>
<path fill="#ffffff" opacity="1.000000" stroke="none" 
	d="
M89.026787,408.083069 
	C89.760155,406.581451 89.513046,404.738251 91.450607,404.361633 
	C93.356613,404.987579 92.990456,407.134674 93.945213,408.325287 
	C96.133705,407.912567 95.830383,404.233337 99.447052,405.053680 
	C98.166367,409.184967 97.890205,413.454926 95.147820,416.697998 
	C92.294548,416.190338 93.099792,413.733032 91.696686,412.651581 
	C89.892853,412.704315 90.516090,414.649170 89.679138,415.481903 
	C88.689674,416.466339 87.295624,416.930237 86.826645,415.620209 
	C85.581123,412.141113 83.513672,408.694519 84.415016,404.438965 
	C87.163841,405.338440 86.907707,407.611847 88.006989,408.932343 
	C88.101585,409.045990 88.399193,409.165100 88.419014,409.139526 
	C88.612640,408.889618 88.767197,408.609467 89.026787,408.083069 
z"/>
<path fill="#ffffff" opacity="1.000000" stroke="none" 
	d="
M136.237473,369.940033 
	C134.625854,369.096527 132.804184,369.856964 131.721466,367.911285 
	C134.206787,365.628815 137.292557,366.415222 139.887344,366.941925 
	C142.609116,367.494415 141.045303,370.284729 141.327271,372.085327 
	C141.609283,373.886230 141.724442,375.716583 141.846115,377.538483 
	C142.060272,380.745056 141.397812,383.780029 138.081360,384.925568 
	C135.025970,385.980896 131.886246,385.755524 129.686279,382.849701 
	C130.201416,380.879944 131.319016,380.607056 132.745880,381.416077 
	C136.470566,383.528046 137.722580,381.456329 137.739624,378.223206 
	C137.753937,375.512817 138.799240,372.546997 136.237473,369.940033 
z"/>
<path fill="#ffffff" opacity="1.000000" stroke="none" 
	d="
M313.547424,411.889160 
	C313.951172,408.779694 311.843689,404.726501 317.232483,404.620087 
	C319.095947,404.583282 321.308685,404.338928 321.718536,406.599213 
	C322.257202,409.569641 323.547943,412.976318 321.120697,415.540283 
	C319.602173,417.144287 317.016327,416.588440 314.961090,416.047729 
	C313.038452,415.541870 313.629517,413.686127 313.547424,411.889160 
z"/>
<path fill="#ffffff" opacity="1.000000" stroke="none" 
	d="
M234.325226,382.252350 
	C236.646408,382.865173 239.040573,381.627075 241.190613,384.421112 
	C236.813156,386.023682 232.745743,385.469086 228.717957,384.915741 
	C227.855423,384.797272 227.604889,383.741608 227.600906,382.903229 
	C227.575378,377.524628 227.587860,372.145844 227.587860,366.880646 
	C230.902313,366.330322 231.067444,368.066864 231.115112,369.772003 
	C231.193604,372.579285 231.205566,375.389709 231.179062,378.198181 
	C231.159943,380.221222 231.660797,381.807343 234.325226,382.252350 
z"/>
<path fill="#ffffff" opacity="1.000000" stroke="none" 
	d="
M236.672714,214.080963 
	C237.037827,210.169525 235.846909,206.378860 239.668442,202.507782 
	C240.988953,214.322021 240.031372,224.901978 238.010452,235.434357 
	C237.564346,235.439758 237.118256,235.445160 236.672150,235.450562 
	C236.672150,228.489258 236.672150,221.527954 236.672714,214.080963 
z"/>
<path fill="#ffffff" opacity="1.000000" stroke="none" 
	d="
M158.724182,410.935333 
	C158.853317,407.087219 160.439819,404.806335 163.993469,404.372040 
	C166.404236,404.077484 168.151810,405.210114 169.221573,407.398163 
	C170.771088,410.567413 169.597473,415.003296 166.889481,416.151154 
	C163.435989,417.615051 160.324051,415.777679 158.724182,410.935333 
M166.194656,408.639008 
	C164.032501,406.799774 162.519714,407.591705 161.866562,409.997559 
	C161.444351,411.552765 162.295593,413.252289 163.938782,413.295807 
	C166.567688,413.365479 167.066513,411.473938 166.194656,408.639008 
z"/>
<path fill="#ffffff" opacity="1.000000" stroke="none" 
	d="
M364.730469,413.415527 
	C364.284515,414.594849 364.024231,415.588959 362.518036,415.872925 
	C360.927673,413.504028 361.580780,410.957336 361.720642,408.502136 
	C371.767975,405.717102 374.312561,407.463745 372.898132,416.003265 
	C371.221710,414.819916 370.687775,414.143250 369.995911,412.299591 
	C367.537170,412.554535 369.314514,415.302490 367.702972,416.131287 
	C365.179626,415.817047 366.444489,413.566650 365.829346,412.282684 
	C365.762268,412.142700 365.617523,412.039917 365.508850,411.919861 
	C365.277557,412.326385 365.046234,412.732880 364.730469,413.415527 
z"/>
<path fill="#ffffff" opacity="1.000000" stroke="none" 
	d="
M187.489517,418.414124 
	C187.355301,414.847778 187.355301,411.556519 187.355301,407.966431 
	C190.244095,407.702576 192.891861,406.543915 195.012527,408.838318 
	C196.317932,410.250641 196.626190,412.321594 195.487122,413.940918 
	C193.612991,416.605194 190.779861,417.988190 187.489517,418.414124 
z"/>
<path fill="#ffffff" opacity="1.000000" stroke="none" 
	d="
M178.543854,407.633057 
	C181.281754,407.636902 182.689667,408.845215 182.875992,411.149109 
	C183.053711,413.346588 182.812271,415.663300 180.189362,416.286530 
	C178.196671,416.760101 177.641068,419.405182 175.042099,419.204956 
	C173.971878,415.889435 174.687057,412.448639 174.664932,409.106812 
	C174.650055,406.858032 176.851364,407.832550 178.543854,407.633057 
z"/>
<path fill="#ffffff" opacity="1.000000" stroke="none" 
	d="
M117.320374,415.723145 
	C115.003151,413.346191 113.960251,410.990570 116.584183,408.693939 
	C118.254379,407.232086 120.476601,406.530487 122.440315,408.139435 
	C124.439552,409.777527 124.769356,412.005219 123.576874,414.370575 
	C122.184052,417.133362 119.924385,416.612579 117.320374,415.723145 
z"/>
<path fill="#ffffff" opacity="1.000000" stroke="none" 
	d="
M103.442368,409.645020 
	C103.741348,407.702911 103.145676,405.924774 104.582428,404.630646 
	C112.268845,410.499695 113.359360,413.211365 109.370483,416.338531 
	C107.344154,415.054779 109.116150,412.885223 108.130836,411.142181 
	C105.563042,411.926636 107.156937,415.186615 104.834297,416.348358 
	C101.941132,414.888062 103.469391,412.231628 103.442368,409.645020 
z"/>
<path fill="#ffffff" opacity="1.000000" stroke="none" 
	d="
M281.064148,409.259766 
	C283.711853,407.154877 286.156891,407.043182 288.359741,409.238220 
	C289.911133,410.784088 289.227325,412.606445 288.412903,414.267242 
	C287.363068,416.408173 285.392181,416.819489 283.374603,416.308441 
	C279.447357,415.313690 280.366577,412.299194 281.064148,409.259766 
z"/>
<path fill="#ffffff" opacity="1.000000" stroke="none" 
	d="
M141.968475,416.338013 
	C138.435806,416.080505 137.160309,414.217590 137.430405,411.281097 
	C137.647003,408.926270 139.212418,407.819885 141.497314,407.701813 
	C143.686279,407.588684 145.779358,408.258820 146.224579,410.493713 
	C146.801773,413.391052 145.657120,415.705292 141.968475,416.338013 
z"/>
<path fill="#ffffff" opacity="1.000000" stroke="none" 
	d="
M342.134399,408.388733 
	C344.444153,411.102692 344.220886,413.598297 341.972351,415.599548 
	C340.352112,417.041656 338.195526,416.774292 336.547272,415.427826 
	C334.827759,414.023163 334.636200,411.971313 335.518860,410.037445 
	C336.843903,407.134399 339.294952,407.385101 342.134399,408.388733 
z"/>
<path fill="#ffffff" opacity="1.000000" stroke="none" 
	d="
M203.166229,407.924408 
	C205.867035,407.458313 207.899857,407.807220 208.990341,410.157684 
	C209.872025,412.058105 209.043777,413.758453 207.959061,415.229462 
	C206.815536,416.780243 204.987793,416.593292 203.399567,416.237579 
	C199.962662,415.467804 199.709244,411.806396 203.166229,407.924408 
z"/>
<path fill="#ffffff" opacity="1.000000" stroke="none" 
	d="
M296.308533,407.634369 
	C300.781189,407.221771 300.429535,410.318115 300.644775,412.868774 
	C300.792999,414.625153 300.426056,416.310211 298.225586,416.438477 
	C296.442535,416.542419 293.958984,416.739624 293.670074,414.580688 
	C293.349701,412.186401 291.850952,408.812714 296.308533,407.634369 
z"/>
<path fill="#ffffff" opacity="1.000000" stroke="none" 
	d="
M352.881317,407.689270 
	C356.421722,408.285858 357.367950,410.322418 356.733368,413.168060 
	C356.233032,415.411652 354.684235,416.437622 352.338837,416.277802 
	C350.207092,416.132507 348.934937,415.118073 348.741364,412.949036 
	C348.492889,410.164886 349.100159,407.947937 352.881317,407.689270 
z"/>
<path fill="#ffffff" opacity="1.000000" stroke="none" 
	d="
M231.538544,410.394531 
	C231.695084,408.844452 232.033096,407.796326 233.438232,407.747528 
	C235.662674,408.580139 233.616180,411.003967 235.320236,412.062775 
	C237.538742,411.513641 235.429962,407.957520 238.570908,407.743134 
	C240.718567,410.094452 239.190399,413.014313 239.504211,415.651367 
	C233.347549,417.153961 232.571075,416.653534 231.538544,410.394531 
z"/>
<path fill="#ffffff" opacity="1.000000" stroke="none" 
	d="
M246.715561,415.184937 
	C245.328506,416.958557 244.610947,416.330231 244.511017,414.761810 
	C244.376373,412.648438 244.477600,410.520050 244.477600,408.221832 
	C246.830627,407.368073 249.358521,406.803040 250.893097,408.800873 
	C252.593964,411.015228 252.721542,413.832733 251.013809,416.348816 
	C247.929535,415.744934 249.725128,412.769073 248.195251,411.505341 
	C246.539841,412.166931 247.189941,413.739807 246.715561,415.184937 
z"/>
<path fill="#ffffff" opacity="1.000000" stroke="none" 
	d="
M272.757996,410.641144 
	C272.787018,409.252899 272.822479,408.256134 272.843170,407.259094 
	C272.874634,405.741577 273.322540,404.504913 275.149048,404.893158 
	C276.562622,405.193604 277.026611,406.459625 276.484497,407.620728 
	C275.173431,410.428802 277.231323,413.952423 274.561127,416.667664 
	C271.612152,415.379639 273.014282,412.933594 272.757996,410.641144 
z"/>
<path fill="#ffffff" opacity="1.000000" stroke="none" 
	d="
M259.636261,408.469971 
	C259.670685,411.389191 261.028015,414.358612 257.349823,416.371368 
	C255.812592,412.294312 256.001770,408.628174 256.994934,404.894775 
	C259.803497,404.915253 259.271332,406.796234 259.636261,408.469971 
z"/>
<path fill="#ffffff" opacity="1.000000" stroke="none" 
	d="
M213.973999,416.004883 
	C212.573761,413.246368 212.905609,410.699280 213.620926,408.165833 
	C215.328156,407.384827 216.855057,407.367859 218.945267,408.432587 
	C216.264648,410.613892 218.089981,414.890594 213.973999,416.004883 
z"/>
<path fill="#ffffff" opacity="1.000000" stroke="none" 
	d="
M263.995789,410.155090 
	C262.599731,407.503540 264.607513,406.384430 265.314362,404.697815 
	C270.958282,407.621796 265.428406,412.490509 268.743988,416.070679 
	C263.008179,416.554718 265.423950,412.199615 263.995789,410.155090 
z"/>
<path fill="#ffffff" opacity="1.000000" stroke="none" 
	d="
M223.377579,413.512329 
	C223.263031,410.373322 221.489349,407.356354 224.572754,404.855530 
	C229.932983,407.273590 224.172913,412.512360 227.649841,415.496399 
	C225.136200,416.693604 223.841171,416.229584 223.377579,413.512329 
z"/>
<path fill="#ffffff" opacity="1.000000" stroke="none" 
	d="
M330.468201,415.238403 
	C328.529755,417.072571 327.602081,415.750488 327.377869,414.166992 
	C326.948059,411.131805 326.471588,408.012878 328.213867,404.165161 
	C330.909576,407.862488 329.268372,411.726990 330.468201,415.238403 
z"/>
<path fill="#ffffff" opacity="1.000000" stroke="none" 
	d="
M128.609314,413.718018 
	C128.599930,411.712067 128.599930,410.074280 128.599930,408.555939 
	C130.111053,407.468689 131.461914,407.205505 133.193176,408.005371 
	C133.226608,410.462128 131.490707,412.428009 130.944244,414.742554 
	C130.313110,417.415710 128.948639,416.191925 128.609314,413.718018 
z"/>
<path fill="#ffffff" opacity="1.000000" stroke="none" 
	d="
M77.031021,408.952637 
	C74.606720,407.745667 74.218224,406.254730 76.190216,404.758789 
	C77.122314,404.051758 78.625862,404.032928 79.289581,405.130188 
	C80.505997,407.141144 79.760773,408.534668 77.031021,408.952637 
z"/>
</svg>
